<svg xmlns="http://www.w3.org/2000/svg" viewBox="0 0 26 26" width="512" height="512"><path d="M21.125 0H4.875A4.874 4.874 0 0 0 0 4.875v16.25A4.874 4.874 0 0 0 4.875 26h16.25A4.874 4.874 0 0 0 26 21.125V4.875A4.874 4.874 0 0 0 21.125 0zm-.661 14.002h-2.433v9.004h-4.063v-9.004h-1.576v-3.033h1.576V9.037C13.969 6.504 15.021 5 18.006 5h3.025v3.022h-1.757c-1.162 0-1.238.433-1.238 1.243l-.005 1.703h2.764l-.331 3.034z" data-original="#030104" class="active-path" data-old_color="#030104" fill="#484761"/></svg>