<svg width="21" height="29" fill="none" xmlns="http://www.w3.org/2000/svg"><path d="M20.441 29H.95v-3.867l9.2-9.805c1.263-1.38 2.193-2.585 2.792-3.613.612-1.029.918-2.005.918-2.93 0-1.263-.319-2.252-.957-2.969-.638-.729-1.55-1.093-2.734-1.093-1.276 0-2.285.442-3.027 1.328-.73.872-1.094 2.025-1.094 3.457H.383c0-1.732.41-3.314 1.23-4.746.834-1.433 2.005-2.552 3.516-3.36 1.51-.82 3.223-1.23 5.137-1.23 2.93 0 5.201.703 6.816 2.11 1.628 1.405 2.441 3.391 2.441 5.956 0 1.407-.364 2.839-1.093 4.297-.73 1.458-1.98 3.158-3.75 5.098l-6.465 6.816H20.44V29z" fill="#DBAB00"/></svg>