<svg width="21" height="30" fill="none" xmlns="http://www.w3.org/2000/svg"><path d="M6.691 12.281H9.7c1.433 0 2.494-.358 3.184-1.074.69-.716 1.035-1.667 1.035-2.852 0-1.145-.345-2.037-1.035-2.675-.677-.638-1.615-.957-2.813-.957-1.08 0-1.985.3-2.715.898-.729.586-1.093 1.354-1.093 2.305H.617c0-1.485.397-2.813 1.192-3.985.807-1.184 1.927-2.109 3.359-2.773C6.613.504 8.202.172 9.934.172c3.007 0 5.364.723 7.07 2.168 1.706 1.432 2.558 3.411 2.558 5.937 0 1.302-.397 2.5-1.19 3.594-.795 1.094-1.837 1.934-3.126 2.52 1.602.572 2.793 1.432 3.574 2.578.795 1.146 1.192 2.5 1.192 4.062 0 2.526-.925 4.551-2.774 6.075-1.836 1.523-4.27 2.285-7.304 2.285-2.839 0-5.163-.75-6.973-2.246C1.164 25.646.266 23.668.266 21.207H5.91c0 1.068.397 1.94 1.192 2.617.807.677 1.796 1.016 2.968 1.016 1.341 0 2.39-.352 3.145-1.055.768-.716 1.152-1.66 1.152-2.832 0-2.838-1.562-4.258-4.687-4.258H6.69v-4.414z" fill="#DBAB00"/></svg>