<svg width="110" height="21" fill="none" xmlns="http://www.w3.org/2000/svg"><path d="M8.535 0c1.081 0 2.048.226 2.902.621.91.395 1.65.96 2.333 1.637.626.677 1.138 1.524 1.536 2.484.341.96.569 1.92.569 2.992s-.17 2.089-.57 2.992c-.34.96-.853 1.75-1.535 2.484a6.936 6.936 0 0 1-2.333 1.637c-.91.395-1.878.62-2.902.62-.854 0-1.707-.169-2.504-.45-.796-.283-1.479-.678-1.934-1.186V21H0V.452h3.528l.569 1.016C4.666.96 5.349.565 6.03.395 6.771.113 7.625 0 8.535 0zm-.512 11.855c.512 0 1.024-.113 1.48-.339a6.095 6.095 0 0 0 1.251-.847c.341-.338.626-.79.853-1.298a3.763 3.763 0 0 0 .342-1.58c0-.565-.114-1.073-.342-1.581-.227-.508-.512-.96-.853-1.299-.341-.338-.74-.677-1.252-.846a3.342 3.342 0 0 0-1.48-.34c-.511 0-1.023.057-1.479.227-.455.169-.853.395-1.194.733a2.977 2.977 0 0 0-.797 1.299 5.839 5.839 0 0 0-.285 1.863c0 .677.114 1.298.285 1.806.17.508.455.903.797 1.299.34.338.74.62 1.194.79.399 0 .91.113 1.48.113zM21.679 2.484c.17-.339.455-.621.683-.903.284-.283.568-.565.91-.79.341-.226.74-.396 1.252-.565C24.979.113 25.49 0 26.06 0c.683 0 1.48.113 2.333.339l-.399 3.613-.682-.17c-.171-.056-.399-.056-.57-.113-.227-.056-.398-.056-.568-.056a5.77 5.77 0 0 0-1.764.282c-.57.17-1.024.452-1.423.734-.398.339-.74.677-.967 1.129a3.04 3.04 0 0 0-.341 1.411v7.79h-4.097V.283h3.755l.342 2.202zM34.367 15.129h-4.096V.45h4.096v14.678zM42.788 11.461h6.828v3.67H37.383v-3.444l6.088-7.621h-5.52V.396h11.494v2.71l-6.657 8.355zM59.63 0c1.139 0 2.106.226 3.016.677.91.452 1.707 1.016 2.333 1.75.683.734 1.138 1.525 1.536 2.484.342.96.512 1.92.512 2.88a7.98 7.98 0 0 1-.227 1.918H56.217c.398.678.967 1.242 1.707 1.694.74.451 1.536.677 2.39.677.853 0 1.593-.056 2.275-.226.626-.112 1.252-.338 1.821-.507l1.366 2.54a9.28 9.28 0 0 1-2.504 1.185c-.91.282-1.934.395-3.016.395a9.027 9.027 0 0 1-3.3-.62c-1.024-.396-1.877-.96-2.674-1.638a7.084 7.084 0 0 1-1.764-2.483 6.963 6.963 0 0 1-.683-2.992c0-1.073.171-2.033.57-2.992.398-.96.967-1.75 1.65-2.484.682-.677 1.536-1.242 2.446-1.693C57.525.225 58.55 0 59.631 0zm3.358 6.548c-.228-.847-.683-1.524-1.31-2.088-.625-.565-1.308-.79-2.104-.79-.797 0-1.537.281-2.163.79-.625.508-1.08 1.241-1.308 2.088h6.885z" fill="#fff"/><path d="M86.543.452c.513 0 1.138.113 1.707.283.626.17 1.195.508 1.707.96.513.451.968 1.072 1.31 1.863.34.79.511 1.806.511 2.992v8.581h-4.097V7.284a6.25 6.25 0 0 0-.17-1.525 2.857 2.857 0 0 0-.512-1.016 1.734 1.734 0 0 0-.74-.564 2.299 2.299 0 0 0-.853-.17c-.285 0-.57.057-.854.17a2.166 2.166 0 0 0-.74.508c-.227.225-.398.564-.512.96-.114.395-.17.96-.17 1.58v7.848h-4.097V7.227c0-1.185-.228-2.032-.626-2.484-.398-.452-1.024-.734-1.82-.734-.57 0-1.082.282-1.537.79-.455.509-.683 1.355-.683 2.485v7.79H70.27V.397h3.528l.57 1.355A4.27 4.27 0 0 1 75.96.735a5.579 5.579 0 0 1 1.935-.339c.341 0 .74.056 1.138.113.398.056.796.17 1.138.395.398.17.74.395 1.08.678.342.282.684.677.968 1.072.228-.395.512-.734.854-1.016a7.248 7.248 0 0 1 1.08-.734c.399-.17.797-.339 1.252-.395.342-.057.74-.057 1.138-.057zM101.736 0c1.138 0 2.105.226 3.015.677.911.452 1.707 1.016 2.333 1.75.683.734 1.138 1.525 1.536 2.484.342.96.513 1.92.513 2.88 0 .564-.057 1.241-.228 1.918H98.322c.398.678.967 1.242 1.707 1.694a4.502 4.502 0 0 0 2.389.677c.854 0 1.594-.056 2.276-.226.626-.112 1.252-.338 1.821-.507l1.366 2.54a9.278 9.278 0 0 1-2.504 1.185c-.91.282-1.934.395-3.015.395a9.031 9.031 0 0 1-3.3-.62c-1.025-.396-1.878-.96-2.675-1.638a7.084 7.084 0 0 1-1.764-2.483 6.963 6.963 0 0 1-.683-2.992c0-1.073.171-2.033.57-2.992.398-.96.967-1.75 1.65-2.484.682-.677 1.536-1.242 2.446-1.693C99.63.225 100.655 0 101.736 0zm3.357 6.548c-.228-.847-.683-1.524-1.309-2.088-.626-.565-1.309-.79-2.105-.79-.797 0-1.537.281-2.163.79-.625.508-1.08 1.241-1.308 2.088h6.885z" fill="#5BBA47"/></svg>