<svg width="43" height="46" fill="none" xmlns="http://www.w3.org/2000/svg"><path d="M30.355 19.766c0-.993-.822-1.797-1.836-1.797H9.609c-1.014 0-1.836.804-1.836 1.797 0 .992.822 1.797 1.836 1.797h18.91c1.014 0 1.836-.805 1.836-1.797zM9.609 25.156c-1.014 0-1.836.805-1.836 1.797 0 .992.822 1.797 1.836 1.797h11.484c1.014 0 1.836-.805 1.836-1.797 0-.992-.822-1.797-1.836-1.797H9.61z" fill="#fff"/><path d="M13.923 42.406h-6.14c-2.025 0-3.672-1.612-3.672-3.593V7.186c0-1.981 1.647-3.593 3.672-3.593h22.572c2.024 0 3.672 1.612 3.672 3.594v11.05c0 .993.822 1.797 1.835 1.797 1.014 0 1.836-.804 1.836-1.797V7.188C37.698 3.224 34.404 0 30.355 0H7.783C3.733 0 .439 3.224.439 7.188v31.625C.44 42.776 3.733 46 7.783 46h6.14c1.014 0 1.836-.804 1.836-1.797 0-.992-.822-1.797-1.836-1.797z" fill="#fff"/><path d="M40.95 26.016c-2.147-2.101-5.641-2.102-7.788-.001l-10.079 9.843a1.79 1.79 0 0 0-.46.75l-2.195 7.073a1.77 1.77 0 0 0 .442 1.777 1.856 1.856 0 0 0 1.805.477l7.41-2.01c.305-.082.583-.24.807-.46L40.95 33.64a5.316 5.316 0 0 0 0-7.624zM28.64 40.59l-3.728 1.01 1.09-3.515 6.802-6.642 2.597 2.542-6.761 6.605zm9.715-9.491l-.355.347-2.597-2.541.355-.346c.715-.701 1.88-.701 2.596 0 .716.7.716 1.84.001 2.54zM28.519 10.781H9.609c-1.014 0-1.836.805-1.836 1.797 0 .992.822 1.797 1.836 1.797h18.91c1.014 0 1.836-.805 1.836-1.797 0-.992-.822-1.797-1.836-1.797z" fill="#fff"/></svg>