<svg width="352" height="316" fill="none" xmlns="http://www.w3.org/2000/svg"><path d="M302.06 113.395c-3.406-11.817-7.626-23.013-12.955-34.093-.627-1.303-2.666-1.101-2.984.297-4.525 19.932-5.169 41.492 1.385 60.943 5.531-8.692 10.502-17.751 14.554-27.147zM287.501 140.548c12.728-5.106 24.518-11.052 36.043-18.057 1.318-.801 2.942.504 2.294 1.851-10.074 20.936-31.412 40.785-56.827 40.61 6.758-7.7 13.038-15.825 18.49-24.404z" fill="#DD9E23"/><path d="M269.017 164.946c.306-11.977-.341-23.574-2.09-35.361-.207-1.398-2.187-1.767-2.929-.54-10.438 17.24-17.43 37.432-16.944 57.262 7.829-6.618 15.26-13.714 21.963-21.361zM247.049 186.313c13.561-1.215 26.557-3.435 39.63-6.671 1.508-.373 2.622 1.326 1.582 2.42-16.045 16.872-42.366 29.389-66.187 22.269 8.744-5.446 17.172-11.413 24.975-18.018z" fill="#DD9E23"/><path d="M222.081 204.327c3.935-11.313 6.839-22.52 8.741-34.211.226-1.39-1.546-2.282-2.634-1.318-15.264 13.511-27.993 30.941-33.631 49.908 9.503-4.179 18.774-8.92 27.524-14.379zM194.551 218.71c13.305 2.549 26.395 4.009 39.858 4.541 1.555.062 2.092 1.99.761 2.75-20.568 11.736-49.614 16.426-70.231 3.147 10.102-2.816 20.061-6.23 29.612-10.438z" fill="#DD9E23"/><path d="M164.946 229.146c7.345-9.753 13.638-19.69 19.104-30.393.648-1.269-.774-2.61-2.113-1.986-18.906 8.804-36.658 22.036-48.23 38.579 10.54-1.36 21.033-3.348 31.239-6.2z" fill="#DD9E23"/><path d="M96.122 233.234c11.149.193 21.734-.348 31.46-1.608l.007-.001.004-.001c10.852-1.4 21.052-3.423 30.32-6.013l.007-.003c10.398-2.897 20.073-6.306 28.757-10.133l.007-.003.003-.001c9.79-4.306 18.784-9.003 26.734-13.963l.012-.008c9.009-5.613 17.165-11.496 24.243-17.489l.008-.006c8.075-6.829 15.252-13.808 21.332-20.743l.002-.003c6.967-7.938 13.007-15.908 17.95-23.686.002-.005.006-.008.008-.011 5.699-8.956 10.454-17.821 14.131-26.351.044-.103.098-.201.149-.301a196.862 196.862 0 0 0 13.191-41.132c.581-2.854 3.505-4.723 6.532-4.176 3.026.547 5.01 3.304 4.429 6.159a207.017 207.017 0 0 1-14.057 43.672c-.043.095-.094.183-.141.274-3.861 8.866-8.788 18.037-14.665 27.271l-.003.005c-5.228 8.225-11.588 16.623-18.907 24.963l-.016.02c-6.431 7.337-13.995 14.697-22.482 21.873l-.004.003c-7.487 6.338-16.083 12.543-25.55 18.44l-.004.003-.01.005c-8.405 5.242-17.881 10.194-28.164 14.717l-.011.005c-9.18 4.043-19.371 7.637-30.292 10.682l-.008.002c-9.811 2.743-20.574 4.88-31.989 6.353l-.004.001c-11.208 2.196-22.983 1.928-34.708 1.725-.885-.016-.195-.244-.93-.602-1.829-.89-3.064-2.704-3.023-4.775.057-2.905 2.6-5.217 5.682-5.164z" fill="#DBAB00"/></svg>