<svg width="361" height="316" fill="none" xmlns="http://www.w3.org/2000/svg"><path d="M64.063 114.897c3.406-11.817 7.626-23.013 12.954-34.093.627-1.303 2.667-1.101 2.984.297 4.525 19.932 5.17 41.492-1.384 60.943-5.531-8.692-10.502-17.751-14.554-27.147zM78.621 142.05c-12.727-5.106-24.517-11.052-36.042-18.057-1.318-.801-2.943.504-2.295 1.851 10.075 20.936 31.412 40.785 56.827 40.61-6.757-7.7-13.038-15.825-18.49-24.404z" fill="#DD9E23"/><path d="M97.106 166.448c-.306-11.977.341-23.574 2.09-35.361.207-1.398 2.187-1.767 2.929-.54 10.438 17.24 17.43 37.432 16.944 57.262-7.829-6.618-15.26-13.714-21.963-21.361zM119.074 187.815c-13.562-1.215-26.558-3.434-39.63-6.67-1.508-.374-2.623 1.325-1.582 2.419 16.045 16.872 42.366 29.389 66.186 22.269-8.743-5.446-17.171-11.413-24.974-18.018z" fill="#DD9E23"/><path d="M144.041 205.829c-3.934-11.313-6.838-22.52-8.74-34.211-.227-1.39 1.545-2.281 2.633-1.318 15.264 13.511 27.993 30.941 33.631 49.908-9.503-4.179-18.773-8.92-27.524-14.379zM171.572 220.212c-13.305 2.549-26.395 4.009-39.858 4.541-1.556.062-2.093 1.99-.761 2.75 20.567 11.735 49.613 16.426 70.231 3.147-10.103-2.816-20.061-6.23-29.612-10.438z" fill="#DD9E23"/><path d="M201.177 230.648c-7.346-9.753-13.639-19.69-19.104-30.393-.648-1.269.773-2.61 2.112-1.986 18.906 8.804 36.659 22.036 48.23 38.579-10.54-1.36-21.032-3.348-31.238-6.2z" fill="#DD9E23"/><path d="M264.83 233.234c-11.149.193-21.733-.348-31.46-1.608l-.006-.001-.005-.001c-10.851-1.4-21.052-3.423-30.32-6.013l-.006-.003c-10.399-2.897-20.074-6.306-28.758-10.132l-.007-.004-.002-.001c-9.791-4.306-18.785-9.003-26.734-13.963l-.012-.008c-9.009-5.612-17.166-11.496-24.244-17.489l-.008-.006c-8.075-6.829-15.252-13.808-21.331-20.743l-.002-.003c-6.968-7.938-13.007-15.908-17.95-23.686l-.008-.011c-5.7-8.956-10.454-17.821-14.132-26.351-.044-.103-.098-.201-.149-.301a196.902 196.902 0 0 1-13.191-41.132c-.58-2.854-3.505-4.723-6.532-4.176-3.026.547-5.01 3.304-4.428 6.159A206.998 206.998 0 0 0 59.6 117.433c.043.095.094.183.142.274 3.86 8.866 8.788 18.037 14.664 27.271l.003.005c5.228 8.225 11.589 16.623 18.907 24.963l.016.02c6.431 7.337 13.996 14.697 22.483 21.873l.003.003c7.487 6.338 16.084 12.543 25.551 18.44l.003.003.01.005c8.405 5.242 17.881 10.194 28.164 14.717l.012.005c9.179 4.043 19.37 7.638 30.291 10.682.003 0 .005.002.008.003 9.812 2.742 20.574 4.879 31.989 6.353h.005c10.294 1.335 21.459 1.908 33.184 1.705a5.827 5.827 0 0 0 2.454-.582c1.828-.89 3.063-2.704 3.023-4.775-.057-2.905-2.601-5.217-5.683-5.164z" fill="#DBAB00"/></svg>