<svg width="39" height="45" fill="none" xmlns="http://www.w3.org/2000/svg"><path d="M34.012 13.888c-.636 0-1.242.133-1.792.371-.668-1.69-2.308-2.887-4.222-2.887-.711 0-1.385.165-1.984.46a4.545 4.545 0 0 0-4.03-2.466 4.49 4.49 0 0 0-1.47.248V4.576C20.514 2.053 18.476 0 15.969 0c-2.505 0-4.544 2.053-4.544 4.576v18.128l-3.273-3.745a4.556 4.556 0 0 0-3.291-1.418h-.023a4.495 4.495 0 0 0-3.204 1.322C.13 20.366.048 22.598 1.406 24.986c1.759 3.09 3.67 6.002 5.357 8.573 1.232 1.878 2.396 3.652 3.247 5.12.738 1.272 2.697 5.401 2.717 5.443.255.536.795.878 1.389.878H33.55c.667 0 1.258-.43 1.463-1.066.362-1.127 3.542-11.12 3.542-14.98v-10.49c0-2.523-2.038-4.576-4.544-4.576zm-1.47 4.576c0-.828.66-1.502 1.47-1.502.81 0 1.47.674 1.47 1.502v10.49c0 2.564-1.971 9.46-3.059 12.972H15.085c-.637-1.326-1.832-3.782-2.416-4.79-.893-1.54-2.08-3.349-3.336-5.264-1.662-2.532-3.545-5.402-5.255-8.406-.446-.785-.856-1.844-.27-2.43a1.467 1.467 0 0 1 1.038-.42c.388.001.752.148 1.031.412l5.928 6.78a1.537 1.537 0 0 0 2.694-1.01V4.575c0-.828.66-1.502 1.47-1.502.812 0 1.471.674 1.471 1.502v14.35a1.537 1.537 0 0 0 3.074 0v-4.984c0-.828.66-1.502 1.47-1.502.81 0 1.47.674 1.47 1.502v6.989a1.537 1.537 0 1 0 3.074 0v-4.983c0-.829.66-1.502 1.47-1.502.81 0 1.47.673 1.47 1.502v6.99a1.537 1.537 0 0 0 3.075 0v-4.474z" fill="#fff"/></svg>