<svg width="58" height="40" fill="none" xmlns="http://www.w3.org/2000/svg"><path d="M57.567 14.214l-6.688-9.418a1.731 1.731 0 0 0-1.412-.729H37.822V2.7c0-.956-.775-1.731-1.731-1.731H1.618C.662.969-.113 1.744-.113 2.7v29.036c0 .956.775 1.731 1.731 1.731h3.32c.557 3.16 3.363 5.587 6.587 5.587 3.223 0 6.028-2.427 6.585-5.587h21.427c.557 3.16 3.363 5.587 6.586 5.587 3.224 0 6.029-2.427 6.586-5.587h3.446c.957 0 1.732-.775 1.732-1.731v-16.52c0-.359-.112-.709-.32-1.002zm-3.143 4.105h-8.548v-4.937h6.73c.04 0 .08-.004.118-.006l1.7 2.393v2.55zM3.35 4.431h31.01v25.574H17.833c-1.047-3.014-4.167-4.919-7.326-4.433a6.695 6.695 0 0 0-5.292 4.433H3.35V4.43zm8.175 31.16c-1.995 0-3.483-1.891-3.191-3.827.236-1.563 1.597-2.807 3.19-2.807s2.954 1.243 3.19 2.805c.294 1.936-1.194 3.828-3.19 3.828zm34.598 0c-1.995 0-3.484-1.893-3.19-3.829.237-1.562 1.598-2.805 3.19-2.805 1.593 0 2.954 1.243 3.19 2.805.294 1.936-1.194 3.828-3.19 3.828zm6.31-5.586c-.925-2.66-3.488-4.511-6.31-4.511-2.822 0-5.384 1.85-6.309 4.51h-1.992V7.53h10.751L50.27 9.92h-6.126c-.956 0-1.731.775-1.731 1.731v8.4c0 .957.775 1.732 1.731 1.732h10.28v8.223h-1.992z" fill="#fff"/></svg>