<svg width="173" height="41" fill="none" xmlns="http://www.w3.org/2000/svg"><path d="M47.3 16c1.5 0 2.8.6 4 1.8a6 6 0 0 1 1.6 4.3 6 6 0 0 1-1.7 4.4 5.3 5.3 0 0 1-4 1.7c-.6 0-1.2-.1-1.8-.4a4 4 0 0 1-1.2-.8l-.4-.4V28h-3.2V11.2h3.2v6.5l.1-.2a6 6 0 0 1 1.2-.9 4 4 0 0 1 1-.4l1.2-.2zm-2.7 8.4c.6.7 1.3 1 2 1 .9 0 1.6-.3 2.1-1 .6-.6.9-1.3.9-2.3 0-1-.3-1.7-.9-2.3-.5-.6-1.2-1-2-1s-1.5.4-2 1c-.6.6-.9 1.4-.9 2.3 0 1 .3 1.7.8 2.3zM62 16.1v3.3a4 4 0 0 0-1-.2c-1 0-1.6.3-2 .8-.6.6-.8 1.4-.8 2.4V28h-3.3V16.2h3.3v1.5l.4-.4c.1-.2.5-.5 1.1-.7.6-.3 1.2-.5 1.8-.5h.5zm4.7.1V28h-3.2V16.2h3.2zm-.3-4.6c.4.3.5.7.5 1.3 0 .5-.1 1-.5 1.3a2 2 0 0 1-1.4.5c-.5 0-1-.2-1.3-.5-.3-.3-.5-.8-.5-1.3 0-.6.2-1 .5-1.3.4-.4.8-.5 1.3-.5.6 0 1 .1 1.4.5zM77.4 27v-1l-.1.3a6.4 6.4 0 0 1-1.2.9 4.3 4.3 0 0 1-2.2.6 5 5 0 0 1-3.6-1.8 5.9 5.9 0 0 1-1.7-4.1c0-1.6.6-3 1.7-4.1a5 5 0 0 1 3.6-1.8c.7 0 1.3.1 2 .4l1.2.8.3.5v-1.5h3.2V27c0 1.7-.5 3.2-1.7 4.3a6.1 6.1 0 0 1-4.5 1.7 6.9 6.9 0 0 1-3.5-.9 8 8 0 0 1-1.7-1.3l-.2-.3 2-1.9.4.4 1 .7c.7.3 1.3.5 1.9.5a3 3 0 0 0 2.3-.9 3 3 0 0 0 .8-2.3zm-4.6-7.2c-.5.6-.8 1.2-.8 2 0 1 .3 1.6.8 2.1.5.6 1.1.9 1.8.9.8 0 1.4-.3 2-.9.5-.5.8-1.2.8-2s-.3-1.5-.8-2a2.6 2.6 0 0 0-3.8 0zm13.9-8.6v6.5l.3-.5 1.2-.7c.5-.3 1.2-.5 1.8-.5 1.3 0 2.4.5 3.3 1.4.8 1 1.3 2.2 1.3 3.8V28h-3.3v-6.5c0-.7-.2-1.3-.6-1.7-.4-.5-1-.7-1.7-.7s-1.3.3-1.7.7c-.4.5-.6 1.2-.6 2V28h-3.3V11.2h3.3zm12 3.7v-2.1h2.8v3.7h2.4v2.9h-2.4V24c0 .4.2.7.4 1 .3.2.6.4 1 .4a3.1 3.1 0 0 0 1.1-.2h.2v2.7a6 6 0 0 1-2.2.3c-2.5 0-3.7-1.3-3.7-4v-4.8h-2v-3h1c.4 0 .7 0 1-.4.2-.2.3-.6.3-1zm14.6 1.1c1.5 0 2.8.6 4 1.8a6 6 0 0 1 1.6 4.3 6 6 0 0 1-1.7 4.4 5.3 5.3 0 0 1-4 1.7c-.6 0-1.2-.1-1.8-.4a4 4 0 0 1-1.2-.8l-.4-.4V28h-3.2V11.2h3.2v6.5l.1-.2a6.1 6.1 0 0 1 1.2-.9 4 4 0 0 1 1-.4l1.2-.2zm-2.7 8.4c.6.7 1.3 1 2 1 .9 0 1.6-.3 2.1-1 .6-.6.9-1.3.9-2.3 0-1-.3-1.7-.9-2.3-.5-.6-1.2-1-2-1s-1.5.4-2 1c-.6.6-.9 1.4-.9 2.3 0 1 .3 1.7.8 2.3zm17.3-8.3v3.3a4 4 0 0 0-1-.2c-1 0-1.6.3-2 .8-.6.6-.8 1.4-.8 2.4V28h-3.3V16.2h3.3v1.5l.4-.4c.2-.2.5-.5 1.1-.7.6-.3 1.2-.5 1.8-.5h.5zm4.7.1V28h-3.2V16.2h3.2zm-.3-4.6c.4.3.5.7.5 1.3 0 .5-.1 1-.5 1.3a2 2 0 0 1-1.4.5c-.5 0-1-.2-1.3-.5-.3-.3-.5-.8-.5-1.3 0-.6.2-1 .5-1.3.4-.4.8-.5 1.3-.5.6 0 1 .1 1.4.5zm8 4.4c.7 0 1.3.1 1.9.4l1.2.8.4.5v-6.5h3.2V28h-3.2v-1.4l-.2.1a6.2 6.2 0 0 1-1 1l-1 .4-1.3.1c-1.5 0-2.8-.6-4-1.7a6.1 6.1 0 0 1-1.6-4.4 6 6 0 0 1 1.6-4.3 5.3 5.3 0 0 1 4-1.8zm-1.4 8.4c.5.7 1.2 1 2 1s1.5-.3 2-1c.6-.6.9-1.3.9-2.3 0-1-.3-1.7-.9-2.3-.5-.6-1.2-1-2-1s-1.5.4-2 1c-.6.6-.9 1.4-.9 2.3 0 1 .3 1.7.9 2.3zm22-1.2h-8.5c.1.6.5 1.2 1 1.6.6.5 1.3.7 2.1.7a4 4 0 0 0 2.8-1.1l.4-.4 1.6 2.2-.2.2-.6.5-1 .6-1.4.5c-.6.2-1.2.2-1.8.2a6 6 0 0 1-4.4-1.8 5.9 5.9 0 0 1-1.8-4.3c0-1.7.6-3.1 1.8-4.3a5.9 5.9 0 0 1 4.3-1.8c1.7 0 3 .6 4.2 1.7a5.7 5.7 0 0 1 1.7 4.2l-.2 1.3zm-4-3.8c-.5-.4-1-.6-1.7-.6s-1.3.2-1.8.6c-.5.4-.8.9-1 1.5h5.4c-.1-.6-.4-1.1-.9-1.5zm14.2-1.6l-1.6 2-.3-.3c0-.2-.3-.3-.6-.5l-1-.2c-.5 0-.8 0-1.1.3-.3.1-.4.4-.4.6 0 .3.2.6.6.8l1.3.5 1.6.6c.5.2 1 .6 1.4 1 .3.6.5 1.2.5 2 0 1-.4 1.9-1.2 2.6-.9.7-2 1-3.5 1a7 7 0 0 1-3.1-.7 10 10 0 0 1-1-.6l-.5-.6-.2-.2 1.8-1.8.3.3.9.6c.4.3.9.4 1.4.4.5 0 .9-.1 1.1-.3.3-.2.4-.5.4-.8 0-.3-.2-.6-.5-.8l-1.4-.5-1.6-.6c-.5-.3-1-.6-1.3-1-.4-.6-.6-1.2-.6-1.9 0-1 .4-1.8 1.3-2.6.9-.7 2-1.1 3.3-1.1.8 0 1.5.2 2.2.5l1.4.8.4.5zM22 1a1 1 0 1 0-2 0v5a1 1 0 1 0 2 0V1zM28.2 3.7a1 1 0 0 0-1.4-1.4l-4 4a1 1 0 0 0 1.4 1.4l4-4zM25 8.5a1 1 0 1 0 0 2h5a1 1 0 1 0 0-2h-5zM0 4.5a2.5 2.5 0 0 1 5 0v5.3a13 13 0 0 1 19.8 4.7 13 13 0 0 1-9 18.2A7 7 0 0 1 14 28a8 8 0 0 0 7-8 8 8 0 0 0-9-8 8 8 0 0 0-4.8 13.5 14 14 0 0 0 .3 6.3A13 13 0 0 1 0 20V4.5z" fill="#EB3543"/><path d="M13 28a8 8 0 0 0 9 8 8 8 0 0 0 4.8-13.5 14 14 0 0 0-.3-6.3 13 13 0 1 1-8.3-.9A7 7 0 0 1 20 20a8 8 0 0 0-7 8z" fill="#EB3543"/></svg>