<svg width="34" height="33" viewBox="0 0 34 33" fill="none" xmlns="http://www.w3.org/2000/svg">
<path d="M16.1586 1.30996C16.5522 0.697195 17.4478 0.697195 17.8414 1.30996L22.9259 9.22604C23.0613 9.43687 23.271 9.58918 23.5133 9.65282L32.6132 12.0423C33.3176 12.2272 33.5943 13.079 33.1332 13.6427L27.1757 20.9246C27.0171 21.1185 26.937 21.365 26.9514 21.6151L27.4909 31.008C27.5326 31.735 26.808 32.2615 26.1295 31.9971L17.363 28.5814C17.1296 28.4905 16.8704 28.4905 16.637 28.5814L7.87054 31.9971C7.19195 32.2615 6.46738 31.735 6.50914 31.008L7.04863 21.6151C7.063 21.365 6.98292 21.1185 6.82426 20.9246L0.866823 13.6427C0.405674 13.079 0.682436 12.2272 1.38683 12.0423L10.4867 9.65282C10.729 9.58918 10.9387 9.43687 11.0741 9.22603L16.1586 1.30996Z" fill="#FDC54F"/>
</svg>
